Coordinates
version=1
nRows=16
nColumns=38
inDegrees=no

Units are S.I. units (second, meters, Newtons, ...)
If the header above contains a line with 'inDegrees', this indicates whether rotational values are in degrees (yes) or radians (no).

endheader
time	pelvis_tilt	pelvis_list	pelvis_rotation	pelvis_tx	pelvis_ty	pelvis_tz	hip_flexion_r	hip_adduction_r	hip_rotation_r	knee_angle_r	ankle_angle_r	subtalar_angle_r	mtp_angle_r	hip_flexion_l	hip_adduction_l	hip_rotation_l	knee_angle_l	ankle_angle_l	subtalar_angle_l	mtp_angle_l	lumbar_extension	lumbar_bending	lumbar_rotation	arm_flex_r	arm_add_r	arm_rot_r	elbow_flex_r	pro_sup_r	wrist_flex_r	wrist_dev_r	arm_flex_l	arm_add_l	arm_rot_l	elbow_flex_l	pro_sup_l	wrist_flex_l	wrist_dev_l
0.78	-0.102025	0.0147846	-0.0885813	1.03687	0.992267	-0.350274	0.548223	0.0564512	0.174921	-1.38284	0.164239	-0.000618317	1.62763e-06	0.299225	0.0681388	-0.0938356	-0.748825	0.438555	0.0477166	-6.92876e-06	-0.155193	-0.0302213	0.0284868	-0.484056	-0.251925	-0.155938	1.50194	2.01803	0.0533436	-0.0226169	-0.262042	-0.13309	-0.139622	1.88619	1.86623	0.0304626	0.0234192
0.79	-0.104953	0.00894567	-0.0930841	1.03643	0.996839	-0.349777	0.567039	0.0570515	0.162317	-1.34211	0.171869	-0.000618317	1.62763e-06	0.263566	0.0625812	-0.0939553	-0.714121	0.419313	0.0477166	-6.92876e-06	-0.151802	-0.0214437	0.0184394	-0.508371	-0.257451	-0.157162	1.52449	2.00442	0.0533436	-0.0226169	-0.258706	-0.12801	-0.139219	1.92414	1.86311	0.0304626	0.0234192
0.8	-0.108089	0.00250784	-0.0974972	1.03625	1.00196	-0.349188	0.581844	0.0579166	0.146728	-1.29292	0.178306	-0.000618317	1.62763e-06	0.227664	0.0561657	-0.0951342	-0.677652	0.393299	0.0477166	-6.92876e-06	-0.147932	-0.0118833	0.00934345	-0.533316	-0.261737	-0.160437	1.54961	1.9914	0.0533436	-0.0226169	-0.25787	-0.124198	-0.137723	1.96384	1.85966	0.0304626	0.0234192
0.81	-0.111233	-0.00439158	-0.101787	1.03632	1.00751	-0.348506	0.592249	0.0592685	0.128801	-1.2355	0.183557	-0.000618317	1.62763e-06	0.191896	0.0489772	-0.0976483	-0.640396	0.360694	0.0477166	-6.92876e-06	-0.14389	-0.00178406	0.00142541	-0.558365	-0.264394	-0.165917	1.5755	1.97926	0.0533436	-0.0226169	-0.258886	-0.121955	-0.134756	2.00373	1.85671	0.0304626	0.0234192
0.82	-0.114151	-0.0115394	-0.105914	1.03661	1.01335	-0.347729	0.597919	0.0613856	0.109651	-1.17021	0.187651	-0.000618317	1.62763e-06	0.156556	0.04122	-0.101619	-0.60327	0.321903	0.0477166	-6.92876e-06	-0.139996	0.00854193	-0.00521511	-0.583023	-0.265229	-0.173463	1.60075	1.9679	0.0533436	-0.0226169	-0.261291	-0.12145	-0.130126	2.04264	1.85477	0.0304626	0.0234192
0.83	-0.116601	-0.0186509	-0.109832	1.03708	1.01938	-0.346858	0.598635	0.0645298	0.0907972	-1.09762	0.190654	-0.000618317	1.62763e-06	0.121896	0.0332197	-0.106976	-0.567171	0.27761	0.0477166	-6.92876e-06	-0.136545	0.0187191	-0.0105926	-0.606855	-0.264249	-0.182707	1.62438	1.957	0.0533436	-0.0226169	-0.264788	-0.122717	-0.123812	2.07979	1.85388	0.0304626	0.0234192
0.84	-0.118377	-0.0253947	-0.113487	1.03774	1.02543	-0.345905	0.594371	0.0688574	0.0739698	-1.0186	0.192694	-0.000618317	1.62763e-06	0.0881966	0.0253955	-0.113425	-0.533034	0.228817	0.0477166	-6.92876e-06	-0.133763	0.0283317	-0.0148249	-0.629497	-0.261638	-0.193129	1.64584	1.94622	0.0533436	-0.0226169	-0.269221	-0.125656	-0.115941	2.11472	1.85366	0.0304626	0.0234192
0.85	-0.119345	-0.0314237	-0.116797	1.03855	1.03138	-0.344884	0.585376	0.0743407	0.06084	-0.934421	0.193966	-0.000618317	1.62763e-06	0.0558459	0.0182117	-0.120414	-0.501878	0.176821	0.0477166	-6.92876e-06	-0.13175	0.0369659	-0.0181204	-0.650647	-0.257695	-0.204145	1.66495	1.93536	0.0533436	-0.0226169	-0.274527	-0.130059	-0.106762	2.14719	1.85333	0.0304626	0.0234192
0.86	-0.119491	-0.0364145	-0.119651	1.03949	1.03706	-0.343813	0.572227	0.0807318	0.0527314	-0.84676	0.194738	-0.000618317	1.62763e-06	0.0253899	0.012117	-0.127173	-0.474821	0.123119	0.0477166	-6.92876e-06	-0.130459	0.0442574	-0.020752	-0.670057	-0.252782	-0.215193	1.68178	1.92439	0.0533436	-0.0226169	-0.280705	-0.135637	-0.0966213	2.17708	1.85195	0.0304626	0.0234192
0.87	-0.11892	-0.0401123	-0.121927	1.04053	1.04231	-0.342714	0.555829	0.0875833	0.0503901	-0.757757	0.195331	-0.000618317	1.62763e-06	-0.00247526	0.00748264	-0.132815	-0.453052	0.0692813	0.0477166	-6.92876e-06	-0.129707	0.0499374	-0.0230056	-0.687528	-0.247267	-0.225799	1.69659	1.91356	0.0533436	-0.0226169	-0.287771	-0.142049	-0.0859107	2.20431	1.84858	0.0304626	0.0234192
0.88	-0.117835	-0.0423674	-0.123526	1.04161	1.04699	-0.341619	0.537333	0.0943321	0.0538681	-0.669937	0.196065	-0.000618317	1.62763e-06	-0.0269793	0.00454742	-0.136519	-0.437752	0.0168167	0.0477166	-6.92876e-06	-0.129244	0.0538698	-0.0251128	-0.7029	-0.24149	-0.235619	1.70974	1.90331	0.0533436	-0.0226169	-0.29573	-0.148931	-0.0750284	2.2288	1.84246	0.0304626	0.0234192
0.89	-0.116465	-0.0431511	-0.124416	1.04269	1.05096	-0.340564	0.517996	0.100423	0.0625357	-0.586069	0.197165	-0.000618317	1.62763e-06	-0.047393	0.00337706	-0.137694	-0.43	-0.0329272	0.0477166	-6.92876e-06	-0.128829	0.0560774	-0.0271893	-0.71606	-0.235755	-0.244447	1.7216	1.89417	0.0533436	-0.0226169	-0.30456	-0.155915	-0.064342	2.25042	1.83317	0.0304626	0.0234192
0.9	-0.114969	-0.0425714	-0.124654	1.04373	1.05413	-0.33958	0.499015	0.105433	0.0751963	-0.508944	0.198654	-0.000618317	1.62763e-06	-0.0631527	0.00383933	-0.136123	-0.430665	-0.0788106	0.0477166	-6.92876e-06	-0.128318	0.0567485	-0.0292041	-0.726924	-0.230332	-0.252187	1.73257	1.88663	0.0533436	-0.0226169	-0.314195	-0.16265	-0.0541692	2.26899	1.8207	0.0304626	0.0234192
0.91	-0.113384	-0.0408723	-0.124374	1.04471	1.05644	-0.338689	0.481355	0.10916	0.0902893	-0.441105	0.200257	-0.000618317	1.62763e-06	-0.07396	0.00560426	-0.132009	-0.440327	-0.119905	0.0477166	-6.92876e-06	-0.12772	0.0562158	-0.0309893	-0.735435	-0.225459	-0.258818	1.74294	1.88099	0.0533436	-0.0226169	-0.324526	-0.16882	-0.0447735	2.28436	1.80552	0.0304626	0.0234192
0.92	-0.111638	-0.0384158	-0.123762	1.04559	1.05786	-0.337895	0.465648	0.111648	0.106136	-0.384631	0.201387	-0.000618317	1.62763e-06	-0.0798242	0.00817301	-0.125958	-0.459225	-0.155457	0.0477166	-6.92876e-06	-0.127211	0.0549061	-0.0322849	-0.74155	-0.221353	-0.264361	1.75296	1.87732	0.0533436	-0.0226169	-0.3354	-0.174168	-0.0363698	2.29636	1.78852	0.0304626	0.0234192
0.93	-0.109593	-0.0356389	-0.12301	1.04635	1.05838	-0.337193	0.45219	0.113158	0.121188	-0.340994	0.201234	-0.000618317	1.62763e-06	-0.0810347	0.0109233	-0.118894	-0.487246	-0.184844	0.0477166	-6.92876e-06	-0.127092	0.0532783	-0.0328049	-0.745235	-0.218206	-0.268847	1.76273	1.87548	0.0533436	-0.0226169	-0.346628	-0.178511	-0.0291281	2.30487	1.77102	0.0304626	0.0234192
